# xmcd
#
# Track frame offsets:
#	150
#	15295
#	28187
#	42217
#	56858
#	66435
#	79137
#	89933
#	103352
#	119665
#
# Disc length: 1743 seconds
#
# Revision: 1
# Processed by: cddbd v1.5.2PL0 Copyright (c) Steve Scherf et al.
# Submitted via: audiograbber 1.83.01
#
DISCID=9206cd0a
DTITLE=Various Artist - #1 1980s Country Gold
DYEAR=2006
DGENRE=Country
TTITLE0=Life Turned Her That Way - Ricky Van Shelton
TTITLE1=Let's Chase Each Other Around The Room - Merle Haggard
TTITLE2=You're Gonna Ruin My Bad Reputation - Ronnie McDowell
TTITLE3=Mornin' Ride - Lee Greenwood
TTITLE4=Talk To Me (Live) - Mickey Gilley
TTITLE5=All The Gold In California - Larry Gatlin and The Gatlin Brothers
TTITLE6=Don't worry 'Bout Me Baby - Janie Fricke
TTITLE7=My Favorite Memory - Merle Haggard
TTITLE8=She's To Good To Be True - Exile
TTITLE9=Above And Beyond (The Call Of Love) - Rodney Crowell
EXTD=
EXTT0=
EXTT1=
EXTT2=
EXTT3=
EXTT4=
EXTT5=
EXTT6=
EXTT7=
EXTT8=
EXTT9=
PLAYORDER=
